<svg version="1.1" xmlns="http://www.w3.org/2000/svg" xmlns:xlink="http://www.w3.org/1999/xlink" width="70.919921875" height="64"><defs/><g><text fill="#eeeeee" stroke="none" font-family="Arial" font-size="24px" font-style="normal" font-weight="normal" text-decoration="none" x="0" y="0">UNREGISTERED</text><text fill="#eeeeee" stroke="none" font-family="Arial" font-size="24px" font-style="normal" font-weight="normal" text-decoration="none" x="0" y="30">UNREGISTERED</text><text fill="#eeeeee" stroke="none" font-family="Arial" font-size="24px" font-style="normal" font-weight="normal" text-decoration="none" x="0" y="60">UNREGISTERED</text><g transform="translate(-126,-110) scale(1,1)"><rect fill="#C0C0C0" stroke="none" x="143" y="127" width="50.919921875" height="44" opacity="0.2"/></g><g transform="translate(-126,-110) scale(1,1)"><rect fill="#ffffff" stroke="none" x="136" y="120" width="50.919921875" height="44"/></g><g transform="translate(-126,-110) scale(1,1)"><path fill="none" stroke="#000000" d="M 136 120 L 186.919921875 120 L 186.919921875 164 L 136 164 L 136 120 Z Z" stroke-miterlimit="10"/></g><g transform="translate(-126,-110) scale(1,1)"><path fill="none" stroke="#000000" d="M 136 145 L 186.919921875 145" stroke-miterlimit="10"/></g><g transform="translate(-126,-110) scale(1,1)"><path fill="none" stroke="#000000" d="M 136 155 L 186.919921875 155" stroke-miterlimit="10"/></g><g transform="translate(-126,-110) scale(1,1)"><g><path fill="none" stroke="none"/><text fill="#000000" stroke="none" font-family="Arial" font-size="13px" font-style="normal" font-weight="bold" text-decoration="none" x="141.591796875" y="139.5">Class1</text></g></g></g></svg>