<svg version="1.1" xmlns="http://www.w3.org/2000/svg" xmlns:xlink="http://www.w3.org/1999/xlink" width="126.4326171875" height="52"><defs/><g><text fill="#eeeeee" stroke="none" font-family="Arial" font-size="24px" font-style="normal" font-weight="normal" text-decoration="none" x="0" y="0">UNREGISTERED</text><text fill="#eeeeee" stroke="none" font-family="Arial" font-size="24px" font-style="normal" font-weight="normal" text-decoration="none" x="0" y="30">UNREGISTERED</text><g transform="translate(-406,-822) scale(1,1)"><rect fill="#C0C0C0" stroke="none" x="423" y="839" width="106.4326171875" height="32" opacity="0.2"/></g><g transform="translate(-406,-822) scale(1,1)"><rect fill="#ffffff" stroke="none" x="416" y="832" width="106.4326171875" height="32"/></g><g transform="translate(-406,-822) scale(1,1)"><path fill="none" stroke="#000000" d="M 416 832 L 522.4326171875 832 L 522.4326171875 864 L 416 864 L 416 832 Z Z" stroke-miterlimit="10"/></g><g transform="translate(-406,-822) scale(1,1)"><g><path fill="none" stroke="none"/><text fill="#000000" stroke="none" font-family="Arial" font-size="13px" font-style="normal" font-weight="normal" text-decoration="none" x="469.21630859375" y="849.5"></text></g></g><g transform="translate(-406,-822) scale(1,1)"><g><path fill="none" stroke="none"/><text fill="#000000" stroke="none" font-family="Arial" font-size="13px" font-style="normal" font-weight="normal" text-decoration="none" x="469.21630859375" y="849.5"></text></g></g><g transform="translate(-406,-822) scale(1,1)"><g><path fill="none" stroke="none"/><text fill="#000000" stroke="none" font-family="Arial" font-size="13px" font-style="normal" font-weight="normal" text-decoration="none" x="469.21630859375" y="849.5"></text></g></g><g transform="translate(-406,-822) scale(1,1)"><g><path fill="none" stroke="none"/><text fill="#000000" stroke="none" font-family="Arial" font-size="13px" font-style="normal" font-weight="normal" text-decoration="none" x="469.21630859375" y="849.5"></text></g></g><g transform="translate(-406,-822) scale(1,1)"><g><path fill="none" stroke="none"/><text fill="#000000" stroke="none" font-family="Arial" font-size="13px" font-style="normal" font-weight="normal" text-decoration="none" x="469.21630859375" y="849.5"></text></g></g><g transform="translate(-406,-822) scale(1,1)"><g><path fill="none" stroke="none"/><text fill="#000000" stroke="none" font-family="Arial" font-size="13px" font-style="normal" font-weight="normal" text-decoration="none" x="469.21630859375" y="849.5"></text></g></g><g transform="translate(-406,-822) scale(1,1)"><g><path fill="none" stroke="none"/><text fill="#000000" stroke="none" font-family="Arial" font-size="13px" font-style="normal" font-weight="normal" text-decoration="none" x="469.21630859375" y="849.5"></text></g></g><g transform="translate(-406,-822) scale(1,1)"><g><path fill="none" stroke="none"/><text fill="#000000" stroke="none" font-family="Arial" font-size="13px" font-style="normal" font-weight="normal" text-decoration="none" x="469.21630859375" y="849.5"></text></g></g><g transform="translate(-406,-822) scale(1,1)"><g><path fill="none" stroke="none"/><text fill="#000000" stroke="none" font-family="Arial" font-size="13px" font-style="normal" font-weight="normal" text-decoration="none" x="455.49267578125" y="854.5">User</text></g></g><g transform="translate(-406,-822) scale(1,1)"><g><path fill="none" stroke="none"/><text fill="#000000" stroke="none" font-family="Arial" font-size="13px" font-style="normal" font-weight="normal" text-decoration="none" x="239.5" y="-219.5"></text></g></g></g></svg>