<svg version="1.1" xmlns="http://www.w3.org/2000/svg" xmlns:xlink="http://www.w3.org/1999/xlink" width="499.984375" height="343"><defs/><g><text fill="#eeeeee" stroke="none" font-family="Arial" font-size="24px" font-style="normal" font-weight="normal" text-decoration="none" x="0" y="0">UNREGISTERED</text><text fill="#eeeeee" stroke="none" font-family="Arial" font-size="24px" font-style="normal" font-weight="normal" text-decoration="none" x="0" y="30">UNREGISTERED</text><text fill="#eeeeee" stroke="none" font-family="Arial" font-size="24px" font-style="normal" font-weight="normal" text-decoration="none" x="0" y="60">UNREGISTERED</text><text fill="#eeeeee" stroke="none" font-family="Arial" font-size="24px" font-style="normal" font-weight="normal" text-decoration="none" x="0" y="90">UNREGISTERED</text><text fill="#eeeeee" stroke="none" font-family="Arial" font-size="24px" font-style="normal" font-weight="normal" text-decoration="none" x="0" y="120">UNREGISTERED</text><text fill="#eeeeee" stroke="none" font-family="Arial" font-size="24px" font-style="normal" font-weight="normal" text-decoration="none" x="0" y="150">UNREGISTERED</text><text fill="#eeeeee" stroke="none" font-family="Arial" font-size="24px" font-style="normal" font-weight="normal" text-decoration="none" x="0" y="180">UNREGISTERED</text><text fill="#eeeeee" stroke="none" font-family="Arial" font-size="24px" font-style="normal" font-weight="normal" text-decoration="none" x="0" y="210">UNREGISTERED</text><text fill="#eeeeee" stroke="none" font-family="Arial" font-size="24px" font-style="normal" font-weight="normal" text-decoration="none" x="0" y="240">UNREGISTERED</text><text fill="#eeeeee" stroke="none" font-family="Arial" font-size="24px" font-style="normal" font-weight="normal" text-decoration="none" x="0" y="270">UNREGISTERED</text><text fill="#eeeeee" stroke="none" font-family="Arial" font-size="24px" font-style="normal" font-weight="normal" text-decoration="none" x="0" y="300">UNREGISTERED</text><text fill="#eeeeee" stroke="none" font-family="Arial" font-size="24px" font-style="normal" font-weight="normal" text-decoration="none" x="0" y="330">UNREGISTERED</text><text fill="#eeeeee" stroke="none" font-family="Arial" font-size="24px" font-style="normal" font-weight="normal" text-decoration="none" x="200" y="0">UNREGISTERED</text><text fill="#eeeeee" stroke="none" font-family="Arial" font-size="24px" font-style="normal" font-weight="normal" text-decoration="none" x="200" y="30">UNREGISTERED</text><text fill="#eeeeee" stroke="none" font-family="Arial" font-size="24px" font-style="normal" font-weight="normal" text-decoration="none" x="200" y="60">UNREGISTERED</text><text fill="#eeeeee" stroke="none" font-family="Arial" font-size="24px" font-style="normal" font-weight="normal" text-decoration="none" x="200" y="90">UNREGISTERED</text><text fill="#eeeeee" stroke="none" font-family="Arial" font-size="24px" font-style="normal" font-weight="normal" text-decoration="none" x="200" y="120">UNREGISTERED</text><text fill="#eeeeee" stroke="none" font-family="Arial" font-size="24px" font-style="normal" font-weight="normal" text-decoration="none" x="200" y="150">UNREGISTERED</text><text fill="#eeeeee" stroke="none" font-family="Arial" font-size="24px" font-style="normal" font-weight="normal" text-decoration="none" x="200" y="180">UNREGISTERED</text><text fill="#eeeeee" stroke="none" font-family="Arial" font-size="24px" font-style="normal" font-weight="normal" text-decoration="none" x="200" y="210">UNREGISTERED</text><text fill="#eeeeee" stroke="none" font-family="Arial" font-size="24px" font-style="normal" font-weight="normal" text-decoration="none" x="200" y="240">UNREGISTERED</text><text fill="#eeeeee" stroke="none" font-family="Arial" font-size="24px" font-style="normal" font-weight="normal" text-decoration="none" x="200" y="270">UNREGISTERED</text><text fill="#eeeeee" stroke="none" font-family="Arial" font-size="24px" font-style="normal" font-weight="normal" text-decoration="none" x="200" y="300">UNREGISTERED</text><text fill="#eeeeee" stroke="none" font-family="Arial" font-size="24px" font-style="normal" font-weight="normal" text-decoration="none" x="200" y="330">UNREGISTERED</text><text fill="#eeeeee" stroke="none" font-family="Arial" font-size="24px" font-style="normal" font-weight="normal" text-decoration="none" x="400" y="0">UNREGISTERED</text><text fill="#eeeeee" stroke="none" font-family="Arial" font-size="24px" font-style="normal" font-weight="normal" text-decoration="none" x="400" y="30">UNREGISTERED</text><text fill="#eeeeee" stroke="none" font-family="Arial" font-size="24px" font-style="normal" font-weight="normal" text-decoration="none" x="400" y="60">UNREGISTERED</text><text fill="#eeeeee" stroke="none" font-family="Arial" font-size="24px" font-style="normal" font-weight="normal" text-decoration="none" x="400" y="90">UNREGISTERED</text><text fill="#eeeeee" stroke="none" font-family="Arial" font-size="24px" font-style="normal" font-weight="normal" text-decoration="none" x="400" y="120">UNREGISTERED</text><text fill="#eeeeee" stroke="none" font-family="Arial" font-size="24px" font-style="normal" font-weight="normal" text-decoration="none" x="400" y="150">UNREGISTERED</text><text fill="#eeeeee" stroke="none" font-family="Arial" font-size="24px" font-style="normal" font-weight="normal" text-decoration="none" x="400" y="180">UNREGISTERED</text><text fill="#eeeeee" stroke="none" font-family="Arial" font-size="24px" font-style="normal" font-weight="normal" text-decoration="none" x="400" y="210">UNREGISTERED</text><text fill="#eeeeee" stroke="none" font-family="Arial" font-size="24px" font-style="normal" font-weight="normal" text-decoration="none" x="400" y="240">UNREGISTERED</text><text fill="#eeeeee" stroke="none" font-family="Arial" font-size="24px" font-style="normal" font-weight="normal" text-decoration="none" x="400" y="270">UNREGISTERED</text><text fill="#eeeeee" stroke="none" font-family="Arial" font-size="24px" font-style="normal" font-weight="normal" text-decoration="none" x="400" y="300">UNREGISTERED</text><text fill="#eeeeee" stroke="none" font-family="Arial" font-size="24px" font-style="normal" font-weight="normal" text-decoration="none" x="400" y="330">UNREGISTERED</text><g transform="translate(-270,-190) scale(1,1)"><rect fill="#C0C0C0" stroke="none" x="343" y="239" width="50.919921875" height="44" opacity="0.2"/></g><g transform="translate(-270,-190) scale(1,1)"><rect fill="#ffffff" stroke="none" x="336" y="232" width="50.919921875" height="44"/></g><g transform="translate(-270,-190) scale(1,1)"><path fill="none" stroke="#000000" d="M 336 232 L 386.919921875 232 L 386.919921875 276 L 336 276 L 336 232 Z Z" stroke-miterlimit="10"/></g><g transform="translate(-270,-190) scale(1,1)"><path fill="none" stroke="#000000" d="M 336 257 L 386.919921875 257" stroke-miterlimit="10"/></g><g transform="translate(-270,-190) scale(1,1)"><path fill="none" stroke="#000000" d="M 336 267 L 386.919921875 267" stroke-miterlimit="10"/></g><g transform="translate(-270,-190) scale(1,1)"><g><path fill="none" stroke="none"/><text fill="#000000" stroke="none" font-family="Arial" font-size="13px" font-style="normal" font-weight="bold" text-decoration="none" x="347.736328125" y="251.5">User</text></g></g><g transform="translate(-270,-190) scale(1,1)"><rect fill="#C0C0C0" stroke="none" x="471" y="207" width="109.4072265625" height="115" opacity="0.2"/></g><g transform="translate(-270,-190) scale(1,1)"><rect fill="#ffffff" stroke="none" x="464" y="200" width="109.4072265625" height="115"/></g><g transform="translate(-270,-190) scale(1,1)"><path fill="none" stroke="#000000" d="M 464 200 L 573.4072265625 200 L 573.4072265625 315 L 464 315 L 464 200 Z Z" stroke-miterlimit="10"/></g><g transform="translate(-270,-190) scale(1,1)"><path fill="none" stroke="#000000" d="M 464 225 L 573.4072265625 225" stroke-miterlimit="10"/></g><g transform="translate(-270,-190) scale(1,1)"><path fill="none" stroke="#000000" d="M 464 263 L 573.4072265625 263" stroke-miterlimit="10"/></g><g transform="translate(-270,-190) scale(1,1)"><g><path fill="none" stroke="none"/><text fill="#000000" stroke="none" font-family="Arial" font-size="13px" font-style="normal" font-weight="bold" text-decoration="none" x="471.38818359375" y="219.5">Smart Commute</text></g></g><g transform="translate(-270,-190) scale(1,1)"><g><path fill="none" stroke="none"/><text fill="#000000" stroke="none" font-family="Arial" font-size="13px" font-style="normal" font-weight="normal" text-decoration="none" x="469" y="242.5">+userEmail</text></g></g><g transform="translate(-270,-190) scale(1,1)"><g><path fill="none" stroke="none"/><text fill="#000000" stroke="none" font-family="Arial" font-size="13px" font-style="normal" font-weight="normal" text-decoration="none" x="469" y="257.5">+Password</text></g></g><g transform="translate(-270,-190) scale(1,1)"><g><path fill="none" stroke="none"/><text fill="#000000" stroke="none" font-family="Arial" font-size="13px" font-style="normal" font-weight="normal" text-decoration="none" x="469" y="280.5">+login()</text></g></g><g transform="translate(-270,-190) scale(1,1)"><g><path fill="none" stroke="none"/><text fill="#000000" stroke="none" font-family="Arial" font-size="13px" font-style="normal" font-weight="normal" text-decoration="none" x="469" y="295.5">+signUp()</text></g></g><g transform="translate(-270,-190) scale(1,1)"><g><path fill="none" stroke="none"/><text fill="#000000" stroke="none" font-family="Arial" font-size="13px" font-style="normal" font-weight="normal" text-decoration="none" x="469" y="310.5">+logOut()</text></g></g><g transform="translate(-270,-190) scale(1,1)"><rect fill="#C0C0C0" stroke="none" x="287" y="415" width="102.34228515625" height="115" opacity="0.2"/></g><g transform="translate(-270,-190) scale(1,1)"><rect fill="#ffffff" stroke="none" x="280" y="408" width="102.34228515625" height="115"/></g><g transform="translate(-270,-190) scale(1,1)"><path fill="none" stroke="#000000" d="M 280 408 L 382.34228515625 408 L 382.34228515625 523 L 280 523 L 280 408 Z Z" stroke-miterlimit="10"/></g><g transform="translate(-270,-190) scale(1,1)"><path fill="none" stroke="#000000" d="M 280 433 L 382.34228515625 433" stroke-miterlimit="10"/></g><g transform="translate(-270,-190) scale(1,1)"><path fill="none" stroke="#000000" d="M 280 456 L 382.34228515625 456" stroke-miterlimit="10"/></g><g transform="translate(-270,-190) scale(1,1)"><g><path fill="none" stroke="none"/><text fill="#000000" stroke="none" font-family="Arial" font-size="13px" font-style="normal" font-weight="bold" text-decoration="none" x="304.79345703125" y="427.5">Calendar</text></g></g><g transform="translate(-270,-190) scale(1,1)"><g><path fill="none" stroke="none"/><text fill="#000000" stroke="none" font-family="Arial" font-size="13px" font-style="normal" font-weight="normal" text-decoration="none" x="285" y="450.5">+userEvents</text></g></g><g transform="translate(-270,-190) scale(1,1)"><g><path fill="none" stroke="none"/><text fill="#000000" stroke="none" font-family="Arial" font-size="13px" font-style="normal" font-weight="normal" text-decoration="none" x="285" y="473.5">+changeViews()</text></g></g><g transform="translate(-270,-190) scale(1,1)"><g><path fill="none" stroke="none"/><text fill="#000000" stroke="none" font-family="Arial" font-size="13px" font-style="normal" font-weight="normal" text-decoration="none" x="285" y="488.5">+createEvent()</text></g></g><g transform="translate(-270,-190) scale(1,1)"><g><path fill="none" stroke="none"/><text fill="#000000" stroke="none" font-family="Arial" font-size="13px" font-style="normal" font-weight="normal" text-decoration="none" x="285" y="503.5">+modifyEvent()</text></g></g><g transform="translate(-270,-190) scale(1,1)"><g><path fill="none" stroke="none"/><text fill="#000000" stroke="none" font-family="Arial" font-size="13px" font-style="normal" font-weight="normal" text-decoration="none" x="285" y="518.5">+deleteEvent()</text></g></g><g transform="translate(-270,-190) scale(1,1)"><rect fill="#C0C0C0" stroke="none" x="479" y="367" width="89.57080078125" height="85" opacity="0.2"/></g><g transform="translate(-270,-190) scale(1,1)"><rect fill="#ffffff" stroke="none" x="472" y="360" width="89.57080078125" height="85"/></g><g transform="translate(-270,-190) scale(1,1)"><path fill="none" stroke="#000000" d="M 472 360 L 561.57080078125 360 L 561.57080078125 445 L 472 445 L 472 360 Z Z" stroke-miterlimit="10"/></g><g transform="translate(-270,-190) scale(1,1)"><path fill="none" stroke="#000000" d="M 472 385 L 561.57080078125 385" stroke-miterlimit="10"/></g><g transform="translate(-270,-190) scale(1,1)"><path fill="none" stroke="#000000" d="M 472 423 L 561.57080078125 423" stroke-miterlimit="10"/></g><g transform="translate(-270,-190) scale(1,1)"><g><path fill="none" stroke="none"/><text fill="#000000" stroke="none" font-family="Arial" font-size="13px" font-style="normal" font-weight="bold" text-decoration="none" x="488.601806640625" y="379.5">Roadmap</text></g></g><g transform="translate(-270,-190) scale(1,1)"><g><path fill="none" stroke="none"/><text fill="#000000" stroke="none" font-family="Arial" font-size="13px" font-style="normal" font-weight="normal" text-decoration="none" x="477" y="402.5">+userEvents</text></g></g><g transform="translate(-270,-190) scale(1,1)"><g><path fill="none" stroke="none"/><text fill="#000000" stroke="none" font-family="Arial" font-size="13px" font-style="normal" font-weight="normal" text-decoration="none" x="477" y="417.5">+Routes</text></g></g><g transform="translate(-270,-190) scale(1,1)"><g><path fill="none" stroke="none"/><text fill="#000000" stroke="none" font-family="Arial" font-size="13px" font-style="normal" font-weight="normal" text-decoration="none" x="477" y="440.5">+selectDay()</text></g></g><g transform="translate(-270,-190) scale(1,1)"><rect fill="#C0C0C0" stroke="none" x="655" y="439" width="111.984375" height="70" opacity="0.2"/></g><g transform="translate(-270,-190) scale(1,1)"><rect fill="#ffffff" stroke="none" x="648" y="432" width="111.984375" height="70"/></g><g transform="translate(-270,-190) scale(1,1)"><path fill="none" stroke="#000000" d="M 648 432 L 759.984375 432 L 759.984375 502 L 648 502 L 648 432 Z Z" stroke-miterlimit="10"/></g><g transform="translate(-270,-190) scale(1,1)"><path fill="none" stroke="#000000" d="M 648 457 L 759.984375 457" stroke-miterlimit="10"/></g><g transform="translate(-270,-190) scale(1,1)"><path fill="none" stroke="#000000" d="M 648 480 L 759.984375 480" stroke-miterlimit="10"/></g><g transform="translate(-270,-190) scale(1,1)"><g><path fill="none" stroke="none"/><text fill="#000000" stroke="none" font-family="Arial" font-size="13px" font-style="normal" font-weight="bold" text-decoration="none" x="680.505859375" y="451.5">Settings</text></g></g><g transform="translate(-270,-190) scale(1,1)"><g><path fill="none" stroke="none"/><text fill="#000000" stroke="none" font-family="Arial" font-size="13px" font-style="normal" font-weight="normal" text-decoration="none" x="653" y="474.5">+userSettings</text></g></g><g transform="translate(-270,-190) scale(1,1)"><g><path fill="none" stroke="none"/><text fill="#000000" stroke="none" font-family="Arial" font-size="13px" font-style="normal" font-weight="normal" text-decoration="none" x="653" y="497.5">+updateSettings()</text></g></g><g transform="translate(-270,-190) scale(1,1)"><path fill="none" stroke="#000000" d="M 383 447 L 471 417" stroke-miterlimit="10"/></g><g transform="translate(-270,-190) scale(1,1)"><path fill="none" stroke="#000000" d="M 383 465 L 647 467" stroke-miterlimit="10"/></g><g transform="translate(-270,-190) scale(1,1)"><path fill="none" stroke="#000000" d="M 647 448 L 563 418" stroke-miterlimit="10"/></g><g transform="translate(-270,-190) scale(1,1)"><path fill="none" stroke="#000000" d="M 383 407 L 465 316" stroke-miterlimit="10"/></g><g transform="translate(-270,-190) scale(1,1)"><path fill="#FFFFFF" stroke="none" d="M 461.324147124329 326.3676470636505 L 465 316 L 455.0697459613129 320.73181304862504 L 450.27285599955434 332.34353785415317"/></g><g transform="translate(-270,-190) scale(1,1)"><path fill="none" stroke="#000000" d="M 461.324147124329 326.3676470636505 L 465 316 L 455.0697459613129 320.73181304862504 L 450.27285599955434 332.34353785415317 L 461.324147124329 326.3676470636505" stroke-miterlimit="10"/></g><g transform="translate(-270,-190) scale(1,1)"><path fill="none" stroke="#000000" d="M 517 359 L 517 316" stroke-miterlimit="10"/></g><g transform="translate(-270,-190) scale(1,1)"><path fill="#FFFFFF" stroke="none" d="M 521.209517756016 326.16267485762415 L 517 316 L 512.790482243984 326.16267485762415 L 517 338"/></g><g transform="translate(-270,-190) scale(1,1)"><path fill="none" stroke="#000000" d="M 521.209517756016 326.16267485762415 L 517 316 L 512.790482243984 326.16267485762415 L 517 338 L 521.209517756016 326.16267485762415" stroke-miterlimit="10"/></g><g transform="translate(-270,-190) scale(1,1)"><path fill="none" stroke="#000000" d="M 671 431 L 570 316" stroke-miterlimit="10"/></g><g transform="translate(-270,-190) scale(1,1)"><path fill="#FFFFFF" stroke="none" d="M 579.869127563428 320.85801617296465 L 570 316 L 573.5433908454778 326.4136632035122 L 584.5176053120778 332.5299466424648"/></g><g transform="translate(-270,-190) scale(1,1)"><path fill="none" stroke="#000000" d="M 579.869127563428 320.85801617296465 L 570 316 L 573.5433908454778 326.4136632035122 L 584.5176053120778 332.5299466424648 L 579.869127563428 320.85801617296465" stroke-miterlimit="10"/></g><g transform="translate(-270,-190) scale(1,1)"><path fill="none" stroke="#000000" d="M 388 255 L 463 256" stroke-miterlimit="10"/></g></g></svg>