<svg version="1.1" xmlns="http://www.w3.org/2000/svg" xmlns:xlink="http://www.w3.org/1999/xlink" width="930.919921875" height="588"><defs/><g><text fill="#eeeeee" stroke="none" font-family="Arial" font-size="24px" font-style="normal" font-weight="normal" text-decoration="none" x="0" y="0">UNREGISTERED</text><text fill="#eeeeee" stroke="none" font-family="Arial" font-size="24px" font-style="normal" font-weight="normal" text-decoration="none" x="0" y="30">UNREGISTERED</text><text fill="#eeeeee" stroke="none" font-family="Arial" font-size="24px" font-style="normal" font-weight="normal" text-decoration="none" x="0" y="60">UNREGISTERED</text><text fill="#eeeeee" stroke="none" font-family="Arial" font-size="24px" font-style="normal" font-weight="normal" text-decoration="none" x="0" y="90">UNREGISTERED</text><text fill="#eeeeee" stroke="none" font-family="Arial" font-size="24px" font-style="normal" font-weight="normal" text-decoration="none" x="0" y="120">UNREGISTERED</text><text fill="#eeeeee" stroke="none" font-family="Arial" font-size="24px" font-style="normal" font-weight="normal" text-decoration="none" x="0" y="150">UNREGISTERED</text><text fill="#eeeeee" stroke="none" font-family="Arial" font-size="24px" font-style="normal" font-weight="normal" text-decoration="none" x="0" y="180">UNREGISTERED</text><text fill="#eeeeee" stroke="none" font-family="Arial" font-size="24px" font-style="normal" font-weight="normal" text-decoration="none" x="0" y="210">UNREGISTERED</text><text fill="#eeeeee" stroke="none" font-family="Arial" font-size="24px" font-style="normal" font-weight="normal" text-decoration="none" x="0" y="240">UNREGISTERED</text><text fill="#eeeeee" stroke="none" font-family="Arial" font-size="24px" font-style="normal" font-weight="normal" text-decoration="none" x="0" y="270">UNREGISTERED</text><text fill="#eeeeee" stroke="none" font-family="Arial" font-size="24px" font-style="normal" font-weight="normal" text-decoration="none" x="0" y="300">UNREGISTERED</text><text fill="#eeeeee" stroke="none" font-family="Arial" font-size="24px" font-style="normal" font-weight="normal" text-decoration="none" x="0" y="330">UNREGISTERED</text><text fill="#eeeeee" stroke="none" font-family="Arial" font-size="24px" font-style="normal" font-weight="normal" text-decoration="none" x="0" y="360">UNREGISTERED</text><text fill="#eeeeee" stroke="none" font-family="Arial" font-size="24px" font-style="normal" font-weight="normal" text-decoration="none" x="0" y="390">UNREGISTERED</text><text fill="#eeeeee" stroke="none" font-family="Arial" font-size="24px" font-style="normal" font-weight="normal" text-decoration="none" x="0" y="420">UNREGISTERED</text><text fill="#eeeeee" stroke="none" font-family="Arial" font-size="24px" font-style="normal" font-weight="normal" text-decoration="none" x="0" y="450">UNREGISTERED</text><text fill="#eeeeee" stroke="none" font-family="Arial" font-size="24px" font-style="normal" font-weight="normal" text-decoration="none" x="0" y="480">UNREGISTERED</text><text fill="#eeeeee" stroke="none" font-family="Arial" font-size="24px" font-style="normal" font-weight="normal" text-decoration="none" x="0" y="510">UNREGISTERED</text><text fill="#eeeeee" stroke="none" font-family="Arial" font-size="24px" font-style="normal" font-weight="normal" text-decoration="none" x="0" y="540">UNREGISTERED</text><text fill="#eeeeee" stroke="none" font-family="Arial" font-size="24px" font-style="normal" font-weight="normal" text-decoration="none" x="0" y="570">UNREGISTERED</text><text fill="#eeeeee" stroke="none" font-family="Arial" font-size="24px" font-style="normal" font-weight="normal" text-decoration="none" x="200" y="0">UNREGISTERED</text><text fill="#eeeeee" stroke="none" font-family="Arial" font-size="24px" font-style="normal" font-weight="normal" text-decoration="none" x="200" y="30">UNREGISTERED</text><text fill="#eeeeee" stroke="none" font-family="Arial" font-size="24px" font-style="normal" font-weight="normal" text-decoration="none" x="200" y="60">UNREGISTERED</text><text fill="#eeeeee" stroke="none" font-family="Arial" font-size="24px" font-style="normal" font-weight="normal" text-decoration="none" x="200" y="90">UNREGISTERED</text><text fill="#eeeeee" stroke="none" font-family="Arial" font-size="24px" font-style="normal" font-weight="normal" text-decoration="none" x="200" y="120">UNREGISTERED</text><text fill="#eeeeee" stroke="none" font-family="Arial" font-size="24px" font-style="normal" font-weight="normal" text-decoration="none" x="200" y="150">UNREGISTERED</text><text fill="#eeeeee" stroke="none" font-family="Arial" font-size="24px" font-style="normal" font-weight="normal" text-decoration="none" x="200" y="180">UNREGISTERED</text><text fill="#eeeeee" stroke="none" font-family="Arial" font-size="24px" font-style="normal" font-weight="normal" text-decoration="none" x="200" y="210">UNREGISTERED</text><text fill="#eeeeee" stroke="none" font-family="Arial" font-size="24px" font-style="normal" font-weight="normal" text-decoration="none" x="200" y="240">UNREGISTERED</text><text fill="#eeeeee" stroke="none" font-family="Arial" font-size="24px" font-style="normal" font-weight="normal" text-decoration="none" x="200" y="270">UNREGISTERED</text><text fill="#eeeeee" stroke="none" font-family="Arial" font-size="24px" font-style="normal" font-weight="normal" text-decoration="none" x="200" y="300">UNREGISTERED</text><text fill="#eeeeee" stroke="none" font-family="Arial" font-size="24px" font-style="normal" font-weight="normal" text-decoration="none" x="200" y="330">UNREGISTERED</text><text fill="#eeeeee" stroke="none" font-family="Arial" font-size="24px" font-style="normal" font-weight="normal" text-decoration="none" x="200" y="360">UNREGISTERED</text><text fill="#eeeeee" stroke="none" font-family="Arial" font-size="24px" font-style="normal" font-weight="normal" text-decoration="none" x="200" y="390">UNREGISTERED</text><text fill="#eeeeee" stroke="none" font-family="Arial" font-size="24px" font-style="normal" font-weight="normal" text-decoration="none" x="200" y="420">UNREGISTERED</text><text fill="#eeeeee" stroke="none" font-family="Arial" font-size="24px" font-style="normal" font-weight="normal" text-decoration="none" x="200" y="450">UNREGISTERED</text><text fill="#eeeeee" stroke="none" font-family="Arial" font-size="24px" font-style="normal" font-weight="normal" text-decoration="none" x="200" y="480">UNREGISTERED</text><text fill="#eeeeee" stroke="none" font-family="Arial" font-size="24px" font-style="normal" font-weight="normal" text-decoration="none" x="200" y="510">UNREGISTERED</text><text fill="#eeeeee" stroke="none" font-family="Arial" font-size="24px" font-style="normal" font-weight="normal" text-decoration="none" x="200" y="540">UNREGISTERED</text><text fill="#eeeeee" stroke="none" font-family="Arial" font-size="24px" font-style="normal" font-weight="normal" text-decoration="none" x="200" y="570">UNREGISTERED</text><text fill="#eeeeee" stroke="none" font-family="Arial" font-size="24px" font-style="normal" font-weight="normal" text-decoration="none" x="400" y="0">UNREGISTERED</text><text fill="#eeeeee" stroke="none" font-family="Arial" font-size="24px" font-style="normal" font-weight="normal" text-decoration="none" x="400" y="30">UNREGISTERED</text><text fill="#eeeeee" stroke="none" font-family="Arial" font-size="24px" font-style="normal" font-weight="normal" text-decoration="none" x="400" y="60">UNREGISTERED</text><text fill="#eeeeee" stroke="none" font-family="Arial" font-size="24px" font-style="normal" font-weight="normal" text-decoration="none" x="400" y="90">UNREGISTERED</text><text fill="#eeeeee" stroke="none" font-family="Arial" font-size="24px" font-style="normal" font-weight="normal" text-decoration="none" x="400" y="120">UNREGISTERED</text><text fill="#eeeeee" stroke="none" font-family="Arial" font-size="24px" font-style="normal" font-weight="normal" text-decoration="none" x="400" y="150">UNREGISTERED</text><text fill="#eeeeee" stroke="none" font-family="Arial" font-size="24px" font-style="normal" font-weight="normal" text-decoration="none" x="400" y="180">UNREGISTERED</text><text fill="#eeeeee" stroke="none" font-family="Arial" font-size="24px" font-style="normal" font-weight="normal" text-decoration="none" x="400" y="210">UNREGISTERED</text><text fill="#eeeeee" stroke="none" font-family="Arial" font-size="24px" font-style="normal" font-weight="normal" text-decoration="none" x="400" y="240">UNREGISTERED</text><text fill="#eeeeee" stroke="none" font-family="Arial" font-size="24px" font-style="normal" font-weight="normal" text-decoration="none" x="400" y="270">UNREGISTERED</text><text fill="#eeeeee" stroke="none" font-family="Arial" font-size="24px" font-style="normal" font-weight="normal" text-decoration="none" x="400" y="300">UNREGISTERED</text><text fill="#eeeeee" stroke="none" font-family="Arial" font-size="24px" font-style="normal" font-weight="normal" text-decoration="none" x="400" y="330">UNREGISTERED</text><text fill="#eeeeee" stroke="none" font-family="Arial" font-size="24px" font-style="normal" font-weight="normal" text-decoration="none" x="400" y="360">UNREGISTERED</text><text fill="#eeeeee" stroke="none" font-family="Arial" font-size="24px" font-style="normal" font-weight="normal" text-decoration="none" x="400" y="390">UNREGISTERED</text><text fill="#eeeeee" stroke="none" font-family="Arial" font-size="24px" font-style="normal" font-weight="normal" text-decoration="none" x="400" y="420">UNREGISTERED</text><text fill="#eeeeee" stroke="none" font-family="Arial" font-size="24px" font-style="normal" font-weight="normal" text-decoration="none" x="400" y="450">UNREGISTERED</text><text fill="#eeeeee" stroke="none" font-family="Arial" font-size="24px" font-style="normal" font-weight="normal" text-decoration="none" x="400" y="480">UNREGISTERED</text><text fill="#eeeeee" stroke="none" font-family="Arial" font-size="24px" font-style="normal" font-weight="normal" text-decoration="none" x="400" y="510">UNREGISTERED</text><text fill="#eeeeee" stroke="none" font-family="Arial" font-size="24px" font-style="normal" font-weight="normal" text-decoration="none" x="400" y="540">UNREGISTERED</text><text fill="#eeeeee" stroke="none" font-family="Arial" font-size="24px" font-style="normal" font-weight="normal" text-decoration="none" x="400" y="570">UNREGISTERED</text><text fill="#eeeeee" stroke="none" font-family="Arial" font-size="24px" font-style="normal" font-weight="normal" text-decoration="none" x="600" y="0">UNREGISTERED</text><text fill="#eeeeee" stroke="none" font-family="Arial" font-size="24px" font-style="normal" font-weight="normal" text-decoration="none" x="600" y="30">UNREGISTERED</text><text fill="#eeeeee" stroke="none" font-family="Arial" font-size="24px" font-style="normal" font-weight="normal" text-decoration="none" x="600" y="60">UNREGISTERED</text><text fill="#eeeeee" stroke="none" font-family="Arial" font-size="24px" font-style="normal" font-weight="normal" text-decoration="none" x="600" y="90">UNREGISTERED</text><text fill="#eeeeee" stroke="none" font-family="Arial" font-size="24px" font-style="normal" font-weight="normal" text-decoration="none" x="600" y="120">UNREGISTERED</text><text fill="#eeeeee" stroke="none" font-family="Arial" font-size="24px" font-style="normal" font-weight="normal" text-decoration="none" x="600" y="150">UNREGISTERED</text><text fill="#eeeeee" stroke="none" font-family="Arial" font-size="24px" font-style="normal" font-weight="normal" text-decoration="none" x="600" y="180">UNREGISTERED</text><text fill="#eeeeee" stroke="none" font-family="Arial" font-size="24px" font-style="normal" font-weight="normal" text-decoration="none" x="600" y="210">UNREGISTERED</text><text fill="#eeeeee" stroke="none" font-family="Arial" font-size="24px" font-style="normal" font-weight="normal" text-decoration="none" x="600" y="240">UNREGISTERED</text><text fill="#eeeeee" stroke="none" font-family="Arial" font-size="24px" font-style="normal" font-weight="normal" text-decoration="none" x="600" y="270">UNREGISTERED</text><text fill="#eeeeee" stroke="none" font-family="Arial" font-size="24px" font-style="normal" font-weight="normal" text-decoration="none" x="600" y="300">UNREGISTERED</text><text fill="#eeeeee" stroke="none" font-family="Arial" font-size="24px" font-style="normal" font-weight="normal" text-decoration="none" x="600" y="330">UNREGISTERED</text><text fill="#eeeeee" stroke="none" font-family="Arial" font-size="24px" font-style="normal" font-weight="normal" text-decoration="none" x="600" y="360">UNREGISTERED</text><text fill="#eeeeee" stroke="none" font-family="Arial" font-size="24px" font-style="normal" font-weight="normal" text-decoration="none" x="600" y="390">UNREGISTERED</text><text fill="#eeeeee" stroke="none" font-family="Arial" font-size="24px" font-style="normal" font-weight="normal" text-decoration="none" x="600" y="420">UNREGISTERED</text><text fill="#eeeeee" stroke="none" font-family="Arial" font-size="24px" font-style="normal" font-weight="normal" text-decoration="none" x="600" y="450">UNREGISTERED</text><text fill="#eeeeee" stroke="none" font-family="Arial" font-size="24px" font-style="normal" font-weight="normal" text-decoration="none" x="600" y="480">UNREGISTERED</text><text fill="#eeeeee" stroke="none" font-family="Arial" font-size="24px" font-style="normal" font-weight="normal" text-decoration="none" x="600" y="510">UNREGISTERED</text><text fill="#eeeeee" stroke="none" font-family="Arial" font-size="24px" font-style="normal" font-weight="normal" text-decoration="none" x="600" y="540">UNREGISTERED</text><text fill="#eeeeee" stroke="none" font-family="Arial" font-size="24px" font-style="normal" font-weight="normal" text-decoration="none" x="600" y="570">UNREGISTERED</text><text fill="#eeeeee" stroke="none" font-family="Arial" font-size="24px" font-style="normal" font-weight="normal" text-decoration="none" x="800" y="0">UNREGISTERED</text><text fill="#eeeeee" stroke="none" font-family="Arial" font-size="24px" font-style="normal" font-weight="normal" text-decoration="none" x="800" y="30">UNREGISTERED</text><text fill="#eeeeee" stroke="none" font-family="Arial" font-size="24px" font-style="normal" font-weight="normal" text-decoration="none" x="800" y="60">UNREGISTERED</text><text fill="#eeeeee" stroke="none" font-family="Arial" font-size="24px" font-style="normal" font-weight="normal" text-decoration="none" x="800" y="90">UNREGISTERED</text><text fill="#eeeeee" stroke="none" font-family="Arial" font-size="24px" font-style="normal" font-weight="normal" text-decoration="none" x="800" y="120">UNREGISTERED</text><text fill="#eeeeee" stroke="none" font-family="Arial" font-size="24px" font-style="normal" font-weight="normal" text-decoration="none" x="800" y="150">UNREGISTERED</text><text fill="#eeeeee" stroke="none" font-family="Arial" font-size="24px" font-style="normal" font-weight="normal" text-decoration="none" x="800" y="180">UNREGISTERED</text><text fill="#eeeeee" stroke="none" font-family="Arial" font-size="24px" font-style="normal" font-weight="normal" text-decoration="none" x="800" y="210">UNREGISTERED</text><text fill="#eeeeee" stroke="none" font-family="Arial" font-size="24px" font-style="normal" font-weight="normal" text-decoration="none" x="800" y="240">UNREGISTERED</text><text fill="#eeeeee" stroke="none" font-family="Arial" font-size="24px" font-style="normal" font-weight="normal" text-decoration="none" x="800" y="270">UNREGISTERED</text><text fill="#eeeeee" stroke="none" font-family="Arial" font-size="24px" font-style="normal" font-weight="normal" text-decoration="none" x="800" y="300">UNREGISTERED</text><text fill="#eeeeee" stroke="none" font-family="Arial" font-size="24px" font-style="normal" font-weight="normal" text-decoration="none" x="800" y="330">UNREGISTERED</text><text fill="#eeeeee" stroke="none" font-family="Arial" font-size="24px" font-style="normal" font-weight="normal" text-decoration="none" x="800" y="360">UNREGISTERED</text><text fill="#eeeeee" stroke="none" font-family="Arial" font-size="24px" font-style="normal" font-weight="normal" text-decoration="none" x="800" y="390">UNREGISTERED</text><text fill="#eeeeee" stroke="none" font-family="Arial" font-size="24px" font-style="normal" font-weight="normal" text-decoration="none" x="800" y="420">UNREGISTERED</text><text fill="#eeeeee" stroke="none" font-family="Arial" font-size="24px" font-style="normal" font-weight="normal" text-decoration="none" x="800" y="450">UNREGISTERED</text><text fill="#eeeeee" stroke="none" font-family="Arial" font-size="24px" font-style="normal" font-weight="normal" text-decoration="none" x="800" y="480">UNREGISTERED</text><text fill="#eeeeee" stroke="none" font-family="Arial" font-size="24px" font-style="normal" font-weight="normal" text-decoration="none" x="800" y="510">UNREGISTERED</text><text fill="#eeeeee" stroke="none" font-family="Arial" font-size="24px" font-style="normal" font-weight="normal" text-decoration="none" x="800" y="540">UNREGISTERED</text><text fill="#eeeeee" stroke="none" font-family="Arial" font-size="24px" font-style="normal" font-weight="normal" text-decoration="none" x="800" y="570">UNREGISTERED</text><g transform="translate(-110,-238) scale(1,1)"><rect fill="#C0C0C0" stroke="none" x="407" y="751" width="247.849609375" height="72" opacity="0.2"/></g><g transform="translate(-110,-238) scale(1,1)"><rect fill="#ffffff" stroke="none" x="400" y="744" width="247.849609375" height="72"/></g><g transform="translate(-110,-238) scale(1,1)"><path fill="none" stroke="#000000" d="M 400 744 L 647.849609375 744 L 647.849609375 816 L 400 816 L 400 744 Z Z" stroke-miterlimit="10"/></g><g transform="translate(-110,-238) scale(1,1)"><path fill="none" stroke="#000000" d="M 400 769 L 647.849609375 769" stroke-miterlimit="10"/></g><g transform="translate(-110,-238) scale(1,1)"><path fill="none" stroke="#000000" d="M 400 807 L 647.849609375 807" stroke-miterlimit="10"/></g><g transform="translate(-110,-238) scale(1,1)"><g><path fill="none" stroke="none"/><text fill="#000000" stroke="none" font-family="Arial" font-size="13px" font-style="normal" font-weight="bold" text-decoration="none" x="497.071044921875" y="763.5">Waypoint</text></g></g><g transform="translate(-110,-238) scale(1,1)"><g><path fill="none" stroke="none"/><text fill="#000000" stroke="none" font-family="Arial" font-size="13px" font-style="normal" font-weight="normal" text-decoration="none" x="405" y="786.5">+latitude: hereMaps.latitude</text></g></g><g transform="translate(-110,-238) scale(1,1)"><g><path fill="none" stroke="none"/><text fill="#000000" stroke="none" font-family="Arial" font-size="13px" font-style="normal" font-weight="normal" text-decoration="none" x="405" y="801.5">+longitude: hereMaps.longitude</text></g></g><g transform="translate(-110,-238) scale(1,1)"><rect fill="#C0C0C0" stroke="none" x="623" y="359" width="238.5185546875" height="162" opacity="0.2"/></g><g transform="translate(-110,-238) scale(1,1)"><rect fill="#ffffff" stroke="none" x="616" y="352" width="238.5185546875" height="162"/></g><g transform="translate(-110,-238) scale(1,1)"><path fill="none" stroke="#000000" d="M 616 352 L 854.5185546875 352 L 854.5185546875 514 L 616 514 L 616 352 Z Z" stroke-miterlimit="10"/></g><g transform="translate(-110,-238) scale(1,1)"><path fill="none" stroke="#000000" d="M 616 377 L 854.5185546875 377" stroke-miterlimit="10"/></g><g transform="translate(-110,-238) scale(1,1)"><path fill="none" stroke="#000000" d="M 616 505 L 854.5185546875 505" stroke-miterlimit="10"/></g><g transform="translate(-110,-238) scale(1,1)"><g><path fill="none" stroke="none"/><text fill="#000000" stroke="none" font-family="Arial" font-size="13px" font-style="normal" font-weight="bold" text-decoration="none" x="716.47021484375" y="371.5">Config</text></g></g><g transform="translate(-110,-238) scale(1,1)"><g><path fill="none" stroke="none"/><text fill="#000000" stroke="none" font-family="Arial" font-size="13px" font-style="normal" font-weight="normal" text-decoration="none" x="621" y="394.5">+favTransport: String = Transport.Name</text></g></g><g transform="translate(-110,-238) scale(1,1)"><g><path fill="none" stroke="none"/><text fill="#000000" stroke="none" font-family="Arial" font-size="13px" font-style="normal" font-weight="normal" text-decoration="none" x="621" y="409.5">+availTransports: Array = SelectT[]</text></g></g><g transform="translate(-110,-238) scale(1,1)"><g><path fill="none" stroke="none"/><text fill="#000000" stroke="none" font-family="Arial" font-size="13px" font-style="normal" font-weight="normal" text-decoration="none" x="621" y="424.5">+is_lunch: Bool</text></g></g><g transform="translate(-110,-238) scale(1,1)"><g><path fill="none" stroke="none"/><text fill="#000000" stroke="none" font-family="Arial" font-size="13px" font-style="normal" font-weight="normal" text-decoration="none" x="621" y="439.5">+is_break: Bool</text></g></g><g transform="translate(-110,-238) scale(1,1)"><g><path fill="none" stroke="none"/><text fill="#000000" stroke="none" font-family="Arial" font-size="13px" font-style="normal" font-weight="normal" text-decoration="none" x="621" y="454.5">+LunchTimeStart: Moment</text></g></g><g transform="translate(-110,-238) scale(1,1)"><g><path fill="none" stroke="none"/><text fill="#000000" stroke="none" font-family="Arial" font-size="13px" font-style="normal" font-weight="normal" text-decoration="none" x="621" y="469.5">+LunchTimeEnd: Moment</text></g></g><g transform="translate(-110,-238) scale(1,1)"><g><path fill="none" stroke="none"/><text fill="#000000" stroke="none" font-family="Arial" font-size="13px" font-style="normal" font-weight="normal" text-decoration="none" x="621" y="484.5">+BreakTimeStart: Moment</text></g></g><g transform="translate(-110,-238) scale(1,1)"><g><path fill="none" stroke="none"/><text fill="#000000" stroke="none" font-family="Arial" font-size="13px" font-style="normal" font-weight="normal" text-decoration="none" x="621" y="499.5">+BreakTimeEnd: Moment</text></g></g><g transform="translate(-110,-238) scale(1,1)"><rect fill="#C0C0C0" stroke="none" x="127" y="735" width="251.76611328125" height="87" opacity="0.2"/></g><g transform="translate(-110,-238) scale(1,1)"><rect fill="#ffffff" stroke="none" x="120" y="728" width="251.76611328125" height="87"/></g><g transform="translate(-110,-238) scale(1,1)"><path fill="none" stroke="#000000" d="M 120 728 L 371.76611328125 728 L 371.76611328125 815 L 120 815 L 120 728 Z Z" stroke-miterlimit="10"/></g><g transform="translate(-110,-238) scale(1,1)"><path fill="none" stroke="#000000" d="M 120 753 L 371.76611328125 753" stroke-miterlimit="10"/></g><g transform="translate(-110,-238) scale(1,1)"><path fill="none" stroke="#000000" d="M 120 806 L 371.76611328125 806" stroke-miterlimit="10"/></g><g transform="translate(-110,-238) scale(1,1)"><g><path fill="none" stroke="none"/><text fill="#000000" stroke="none" font-family="Arial" font-size="13px" font-style="normal" font-weight="bold" text-decoration="none" x="227.093994140625" y="747.5">Nodes</text></g></g><g transform="translate(-110,-238) scale(1,1)"><g><path fill="none" stroke="none"/><text fill="#000000" stroke="none" font-family="Arial" font-size="13px" font-style="normal" font-weight="normal" text-decoration="none" x="125" y="770.5">+Locations: array = Event.location[i]</text></g></g><g transform="translate(-110,-238) scale(1,1)"><g><path fill="none" stroke="none"/><text fill="#000000" stroke="none" font-family="Arial" font-size="13px" font-style="normal" font-weight="normal" text-decoration="none" x="125" y="785.5">+StartTimes: array = Event.StartTime[i]</text></g></g><g transform="translate(-110,-238) scale(1,1)"><g><path fill="none" stroke="none"/><text fill="#000000" stroke="none" font-family="Arial" font-size="13px" font-style="normal" font-weight="normal" text-decoration="none" x="125" y="800.5">+EndTimes: array = Event.EndTime[i]</text></g></g><g transform="translate(-110,-238) scale(1,1)"><rect fill="#C0C0C0" stroke="none" x="239" y="543" width="265.140625" height="147" opacity="0.2"/></g><g transform="translate(-110,-238) scale(1,1)"><rect fill="#ffffff" stroke="none" x="232" y="536" width="265.140625" height="147"/></g><g transform="translate(-110,-238) scale(1,1)"><path fill="none" stroke="#000000" d="M 232 536 L 497.140625 536 L 497.140625 683 L 232 683 L 232 536 Z Z" stroke-miterlimit="10"/></g><g transform="translate(-110,-238) scale(1,1)"><path fill="none" stroke="#000000" d="M 232 561 L 497.140625 561" stroke-miterlimit="10"/></g><g transform="translate(-110,-238) scale(1,1)"><path fill="none" stroke="#000000" d="M 232 674 L 497.140625 674" stroke-miterlimit="10"/></g><g transform="translate(-110,-238) scale(1,1)"><g><path fill="none" stroke="none"/><text fill="#000000" stroke="none" font-family="Arial" font-size="13px" font-style="normal" font-weight="bold" text-decoration="none" x="343.975341796875" y="555.5">Routes</text></g></g><g transform="translate(-110,-238) scale(1,1)"><g><path fill="none" stroke="none"/><text fill="#000000" stroke="none" font-family="Arial" font-size="13px" font-style="normal" font-weight="normal" text-decoration="none" x="237" y="578.5">+MeanTransport: Transport.name</text></g></g><g transform="translate(-110,-238) scale(1,1)"><g><path fill="none" stroke="none"/><text fill="#000000" stroke="none" font-family="Arial" font-size="13px" font-style="normal" font-weight="normal" text-decoration="none" x="237" y="593.5">+Time: hereMaps.estimatedTime</text></g></g><g transform="translate(-110,-238) scale(1,1)"><g><path fill="none" stroke="none"/><text fill="#000000" stroke="none" font-family="Arial" font-size="13px" font-style="normal" font-weight="normal" text-decoration="none" x="237" y="608.5">+Start: Nodes.Location</text></g></g><g transform="translate(-110,-238) scale(1,1)"><g><path fill="none" stroke="none"/><text fill="#000000" stroke="none" font-family="Arial" font-size="13px" font-style="normal" font-weight="normal" text-decoration="none" x="237" y="623.5">+End: Nodes.Location</text></g></g><g transform="translate(-110,-238) scale(1,1)"><g><path fill="none" stroke="none"/><text fill="#000000" stroke="none" font-family="Arial" font-size="13px" font-style="normal" font-weight="normal" text-decoration="none" x="237" y="638.5">+StartTime: Nodes.StartTime</text></g></g><g transform="translate(-110,-238) scale(1,1)"><g><path fill="none" stroke="none"/><text fill="#000000" stroke="none" font-family="Arial" font-size="13px" font-style="normal" font-weight="normal" text-decoration="none" x="237" y="653.5">+EndTime: Nodes.EndTime</text></g></g><g transform="translate(-110,-238) scale(1,1)"><g><path fill="none" stroke="none"/><text fill="#000000" stroke="none" font-family="Arial" font-size="13px" font-style="normal" font-weight="normal" text-decoration="none" x="237" y="668.5">-waypoints: Array</text></g></g><g transform="translate(-110,-238) scale(1,1)"><rect fill="#C0C0C0" stroke="none" x="295" y="375" width="122.80078125" height="117" opacity="0.2"/></g><g transform="translate(-110,-238) scale(1,1)"><rect fill="#ffffff" stroke="none" x="288" y="368" width="122.80078125" height="117"/></g><g transform="translate(-110,-238) scale(1,1)"><path fill="none" stroke="#000000" d="M 288 368 L 410.80078125 368 L 410.80078125 485 L 288 485 L 288 368 Z Z" stroke-miterlimit="10"/></g><g transform="translate(-110,-238) scale(1,1)"><path fill="none" stroke="#000000" d="M 288 393 L 410.80078125 393" stroke-miterlimit="10"/></g><g transform="translate(-110,-238) scale(1,1)"><path fill="none" stroke="#000000" d="M 288 476 L 410.80078125 476" stroke-miterlimit="10"/></g><g transform="translate(-110,-238) scale(1,1)"><g><path fill="none" stroke="none"/><text fill="#000000" stroke="none" font-family="Arial" font-size="13px" font-style="normal" font-weight="bold" text-decoration="none" x="332.779052734375" y="387.5">Event</text></g></g><g transform="translate(-110,-238) scale(1,1)"><g><path fill="none" stroke="none"/><text fill="#000000" stroke="none" font-family="Arial" font-size="13px" font-style="normal" font-weight="normal" text-decoration="none" x="293" y="410.5">+Title: String</text></g></g><g transform="translate(-110,-238) scale(1,1)"><g><path fill="none" stroke="none"/><text fill="#000000" stroke="none" font-family="Arial" font-size="13px" font-style="normal" font-weight="normal" text-decoration="none" x="293" y="425.5">+StartTime: Date</text></g></g><g transform="translate(-110,-238) scale(1,1)"><g><path fill="none" stroke="none"/><text fill="#000000" stroke="none" font-family="Arial" font-size="13px" font-style="normal" font-weight="normal" text-decoration="none" x="293" y="440.5">+EndTime: Date</text></g></g><g transform="translate(-110,-238) scale(1,1)"><g><path fill="none" stroke="none"/><text fill="#000000" stroke="none" font-family="Arial" font-size="13px" font-style="normal" font-weight="normal" text-decoration="none" x="293" y="455.5">+Location: String</text></g></g><g transform="translate(-110,-238) scale(1,1)"><g><path fill="none" stroke="none"/><text fill="#000000" stroke="none" font-family="Arial" font-size="13px" font-style="normal" font-weight="normal" text-decoration="none" x="293" y="470.5">+Description: String</text></g></g><g transform="translate(-110,-238) scale(1,1)"><rect fill="#C0C0C0" stroke="none" x="815" y="575" width="150.501953125" height="57" opacity="0.2"/></g><g transform="translate(-110,-238) scale(1,1)"><rect fill="#ffffff" stroke="none" x="808" y="568" width="150.501953125" height="57"/></g><g transform="translate(-110,-238) scale(1,1)"><path fill="none" stroke="#000000" d="M 808 568 L 958.501953125 568 L 958.501953125 625 L 808 625 L 808 568 Z Z" stroke-miterlimit="10"/></g><g transform="translate(-110,-238) scale(1,1)"><path fill="none" stroke="#000000" d="M 808 593 L 958.501953125 593" stroke-miterlimit="10"/></g><g transform="translate(-110,-238) scale(1,1)"><path fill="none" stroke="#000000" d="M 808 616 L 958.501953125 616" stroke-miterlimit="10"/></g><g transform="translate(-110,-238) scale(1,1)"><g><path fill="none" stroke="none"/><text fill="#000000" stroke="none" font-family="Arial" font-size="13px" font-style="normal" font-weight="bold" text-decoration="none" x="855.6767578125" y="587.5">Transport</text></g></g><g transform="translate(-110,-238) scale(1,1)"><g><path fill="none" stroke="none"/><text fill="#000000" stroke="none" font-family="Arial" font-size="13px" font-style="normal" font-weight="normal" text-decoration="none" x="813" y="610.5">+name: string</text></g></g><g transform="translate(-110,-238) scale(1,1)"><rect fill="#C0C0C0" stroke="none" x="747" y="715" width="50.919921875" height="44" opacity="0.2"/></g><g transform="translate(-110,-238) scale(1,1)"><rect fill="#ffffff" stroke="none" x="740" y="708" width="50.919921875" height="44"/></g><g transform="translate(-110,-238) scale(1,1)"><path fill="none" stroke="#000000" d="M 740 708 L 790.919921875 708 L 790.919921875 752 L 740 752 L 740 708 Z Z" stroke-miterlimit="10"/></g><g transform="translate(-110,-238) scale(1,1)"><path fill="none" stroke="#000000" d="M 740 733 L 790.919921875 733" stroke-miterlimit="10"/></g><g transform="translate(-110,-238) scale(1,1)"><path fill="none" stroke="#000000" d="M 740 743 L 790.919921875 743" stroke-miterlimit="10"/></g><g transform="translate(-110,-238) scale(1,1)"><g><path fill="none" stroke="none"/><text fill="#000000" stroke="none" font-family="Arial" font-size="13px" font-style="normal" font-weight="bold" text-decoration="none" x="750.89208984375" y="727.5">Train</text></g></g><g transform="translate(-110,-238) scale(1,1)"><rect fill="#C0C0C0" stroke="none" x="771" y="771" width="50.919921875" height="44" opacity="0.2"/></g><g transform="translate(-110,-238) scale(1,1)"><rect fill="#ffffff" stroke="none" x="764" y="764" width="50.919921875" height="44"/></g><g transform="translate(-110,-238) scale(1,1)"><path fill="none" stroke="#000000" d="M 764 764 L 814.919921875 764 L 814.919921875 808 L 764 808 L 764 764 Z Z" stroke-miterlimit="10"/></g><g transform="translate(-110,-238) scale(1,1)"><path fill="none" stroke="#000000" d="M 764 789 L 814.919921875 789" stroke-miterlimit="10"/></g><g transform="translate(-110,-238) scale(1,1)"><path fill="none" stroke="#000000" d="M 764 799 L 814.919921875 799" stroke-miterlimit="10"/></g><g transform="translate(-110,-238) scale(1,1)"><g><path fill="none" stroke="none"/><text fill="#000000" stroke="none" font-family="Arial" font-size="13px" font-style="normal" font-weight="bold" text-decoration="none" x="776.8154296875" y="783.5">Bike</text></g></g><g transform="translate(-110,-238) scale(1,1)"><rect fill="#C0C0C0" stroke="none" x="835" y="771" width="50.919921875" height="44" opacity="0.2"/></g><g transform="translate(-110,-238) scale(1,1)"><rect fill="#ffffff" stroke="none" x="828" y="764" width="50.919921875" height="44"/></g><g transform="translate(-110,-238) scale(1,1)"><path fill="none" stroke="#000000" d="M 828 764 L 878.919921875 764 L 878.919921875 808 L 828 808 L 828 764 Z Z" stroke-miterlimit="10"/></g><g transform="translate(-110,-238) scale(1,1)"><path fill="none" stroke="#000000" d="M 828 789 L 878.919921875 789" stroke-miterlimit="10"/></g><g transform="translate(-110,-238) scale(1,1)"><path fill="none" stroke="#000000" d="M 828 799 L 878.919921875 799" stroke-miterlimit="10"/></g><g transform="translate(-110,-238) scale(1,1)"><g><path fill="none" stroke="none"/><text fill="#000000" stroke="none" font-family="Arial" font-size="13px" font-style="normal" font-weight="bold" text-decoration="none" x="839.257080078125" y="783.5">Walk</text></g></g><g transform="translate(-110,-238) scale(1,1)"><rect fill="#C0C0C0" stroke="none" x="899" y="771" width="50.919921875" height="44" opacity="0.2"/></g><g transform="translate(-110,-238) scale(1,1)"><rect fill="#ffffff" stroke="none" x="892" y="764" width="50.919921875" height="44"/></g><g transform="translate(-110,-238) scale(1,1)"><path fill="none" stroke="#000000" d="M 892 764 L 942.919921875 764 L 942.919921875 808 L 892 808 L 892 764 Z Z" stroke-miterlimit="10"/></g><g transform="translate(-110,-238) scale(1,1)"><path fill="none" stroke="#000000" d="M 892 789 L 942.919921875 789" stroke-miterlimit="10"/></g><g transform="translate(-110,-238) scale(1,1)"><path fill="none" stroke="#000000" d="M 892 799 L 942.919921875 799" stroke-miterlimit="10"/></g><g transform="translate(-110,-238) scale(1,1)"><g><path fill="none" stroke="none"/><text fill="#000000" stroke="none" font-family="Arial" font-size="13px" font-style="normal" font-weight="bold" text-decoration="none" x="906.986328125" y="783.5">Car</text></g></g><g transform="translate(-110,-238) scale(1,1)"><rect fill="#C0C0C0" stroke="none" x="963" y="771" width="50.919921875" height="44" opacity="0.2"/></g><g transform="translate(-110,-238) scale(1,1)"><rect fill="#ffffff" stroke="none" x="956" y="764" width="50.919921875" height="44"/></g><g transform="translate(-110,-238) scale(1,1)"><path fill="none" stroke="#000000" d="M 956 764 L 1006.919921875 764 L 1006.919921875 808 L 956 808 L 956 764 Z Z" stroke-miterlimit="10"/></g><g transform="translate(-110,-238) scale(1,1)"><path fill="none" stroke="#000000" d="M 956 789 L 1006.919921875 789" stroke-miterlimit="10"/></g><g transform="translate(-110,-238) scale(1,1)"><path fill="none" stroke="#000000" d="M 956 799 L 1006.919921875 799" stroke-miterlimit="10"/></g><g transform="translate(-110,-238) scale(1,1)"><g><path fill="none" stroke="none"/><text fill="#000000" stroke="none" font-family="Arial" font-size="13px" font-style="normal" font-weight="bold" text-decoration="none" x="966.53662109375" y="783.5">Tram</text></g></g><g transform="translate(-110,-238) scale(1,1)"><rect fill="#C0C0C0" stroke="none" x="987" y="715" width="50.919921875" height="44" opacity="0.2"/></g><g transform="translate(-110,-238) scale(1,1)"><rect fill="#ffffff" stroke="none" x="980" y="708" width="50.919921875" height="44"/></g><g transform="translate(-110,-238) scale(1,1)"><path fill="none" stroke="#000000" d="M 980 708 L 1030.919921875 708 L 1030.919921875 752 L 980 752 L 980 708 Z Z" stroke-miterlimit="10"/></g><g transform="translate(-110,-238) scale(1,1)"><path fill="none" stroke="#000000" d="M 980 733 L 1030.919921875 733" stroke-miterlimit="10"/></g><g transform="translate(-110,-238) scale(1,1)"><path fill="none" stroke="#000000" d="M 980 743 L 1030.919921875 743" stroke-miterlimit="10"/></g><g transform="translate(-110,-238) scale(1,1)"><g><path fill="none" stroke="none"/><text fill="#000000" stroke="none" font-family="Arial" font-size="13px" font-style="normal" font-weight="bold" text-decoration="none" x="994.259521484375" y="727.5">Bus</text></g></g><g transform="translate(-110,-238) scale(1,1)"><path fill="none" stroke="#000000" d="M 785 707 L 857 626" stroke-miterlimit="10"/></g><g transform="translate(-110,-238) scale(1,1)"><path fill="#FFFFFF" stroke="none" d="M 849.7890382336384 646.7846585346998 L 857 626 L 837.2041070415956 635.5980530306618"/></g><g transform="translate(-110,-238) scale(1,1)"><path fill="none" stroke="#000000" d="M 849.7890382336384 646.7846585346998 L 857 626 L 837.2041070415956 635.5980530306618 L 849.7890382336384 646.7846585346998" stroke-miterlimit="10"/></g><g transform="translate(-110,-238) scale(1,1)"><path fill="none" stroke="#000000" d="M 800 763 L 868 626" stroke-miterlimit="10"/></g><g transform="translate(-110,-238) scale(1,1)"><path fill="#FFFFFF" stroke="none" d="M 866.5046136013577 647.9491188779585 L 868 626 L 851.4222313373518 640.4629729367001"/></g><g transform="translate(-110,-238) scale(1,1)"><path fill="none" stroke="#000000" d="M 866.5046136013577 647.9491188779585 L 868 626 L 851.4222313373518 640.4629729367001 L 866.5046136013577 647.9491188779585" stroke-miterlimit="10"/></g><g transform="translate(-110,-238) scale(1,1)"><path fill="none" stroke="#000000" d="M 857 763 L 878 626" stroke-miterlimit="10"/></g><g transform="translate(-110,-238) scale(1,1)"><path fill="#FFFFFF" stroke="none" d="M 883.2422421693525 647.3663028397021 L 878 626 L 866.5985673597324 644.81508261341"/></g><g transform="translate(-110,-238) scale(1,1)"><path fill="none" stroke="#000000" d="M 883.2422421693525 647.3663028397021 L 878 626 L 866.5985673597324 644.81508261341 L 883.2422421693525 647.3663028397021" stroke-miterlimit="10"/></g><g transform="translate(-110,-238) scale(1,1)"><path fill="none" stroke="#000000" d="M 913 763 L 888 626" stroke-miterlimit="10"/></g><g transform="translate(-110,-238) scale(1,1)"><path fill="#FFFFFF" stroke="none" d="M 899.9310186792422 644.4837981290527 L 888 626 L 883.3664852154192 647.5065232136919"/></g><g transform="translate(-110,-238) scale(1,1)"><path fill="none" stroke="#000000" d="M 899.9310186792422 644.4837981290527 L 888 626 L 883.3664852154192 647.5065232136919 L 899.9310186792422 644.4837981290527" stroke-miterlimit="10"/></g><g transform="translate(-110,-238) scale(1,1)"><path fill="none" stroke="#000000" d="M 969 763 L 898 626" stroke-miterlimit="10"/></g><g transform="translate(-110,-238) scale(1,1)"><path fill="#FFFFFF" stroke="none" d="M 914.8271248218617 640.1720806598568 L 898 626 L 899.8773997313035 647.9197484075183"/></g><g transform="translate(-110,-238) scale(1,1)"><path fill="none" stroke="#000000" d="M 914.8271248218617 640.1720806598568 L 898 626 L 899.8773997313035 647.9197484075183 L 914.8271248218617 640.1720806598568" stroke-miterlimit="10"/></g><g transform="translate(-110,-238) scale(1,1)"><path fill="none" stroke="#000000" d="M 984 707 L 910 626" stroke-miterlimit="10"/></g><g transform="translate(-110,-238) scale(1,1)"><path fill="#FFFFFF" stroke="none" d="M 929.9248267959674 635.3274475153013 L 910 626 L 917.4934787521648 646.6844815306272"/></g><g transform="translate(-110,-238) scale(1,1)"><path fill="none" stroke="#000000" d="M 929.9248267959674 635.3274475153013 L 910 626 L 917.4934787521648 646.6844815306272 L 929.9248267959674 635.3274475153013" stroke-miterlimit="10"/></g><g transform="translate(-110,-238) scale(1,1)"><rect fill="#C0C0C0" stroke="none" x="415" y="255" width="203.0224609375" height="72" opacity="0.2"/></g><g transform="translate(-110,-238) scale(1,1)"><rect fill="#ffffff" stroke="none" x="408" y="248" width="203.0224609375" height="72"/></g><g transform="translate(-110,-238) scale(1,1)"><path fill="none" stroke="#000000" d="M 408 248 L 611.0224609375 248 L 611.0224609375 320 L 408 320 L 408 248 Z Z" stroke-miterlimit="10"/></g><g transform="translate(-110,-238) scale(1,1)"><path fill="none" stroke="#000000" d="M 408 273 L 611.0224609375 273" stroke-miterlimit="10"/></g><g transform="translate(-110,-238) scale(1,1)"><path fill="none" stroke="#000000" d="M 408 311 L 611.0224609375 311" stroke-miterlimit="10"/></g><g transform="translate(-110,-238) scale(1,1)"><g><path fill="none" stroke="none"/><text fill="#000000" stroke="none" font-family="Arial" font-size="13px" font-style="normal" font-weight="bold" text-decoration="none" x="477.350830078125" y="267.5">SavedData</text></g></g><g transform="translate(-110,-238) scale(1,1)"><g><path fill="none" stroke="none"/><text fill="#000000" stroke="none" font-family="Arial" font-size="13px" font-style="normal" font-weight="normal" text-decoration="none" x="413" y="290.5">+Events: array = Event</text></g></g><g transform="translate(-110,-238) scale(1,1)"><g><path fill="none" stroke="none"/><text fill="#000000" stroke="none" font-family="Arial" font-size="13px" font-style="normal" font-weight="normal" text-decoration="none" x="413" y="305.5">+Config: JSON = Config</text></g></g><g transform="translate(-110,-238) scale(1,1)"><rect fill="#C0C0C0" stroke="none" x="615" y="591" width="83.4453125" height="132" opacity="0.2"/></g><g transform="translate(-110,-238) scale(1,1)"><rect fill="#ffffff" stroke="none" x="608" y="584" width="83.4453125" height="132"/></g><g transform="translate(-110,-238) scale(1,1)"><path fill="none" stroke="#000000" d="M 608 584 L 691.4453125 584 L 691.4453125 716 L 608 716 L 608 584 Z Z" stroke-miterlimit="10"/></g><g transform="translate(-110,-238) scale(1,1)"><path fill="none" stroke="#000000" d="M 608 609 L 691.4453125 609" stroke-miterlimit="10"/></g><g transform="translate(-110,-238) scale(1,1)"><path fill="none" stroke="#000000" d="M 608 707 L 691.4453125 707" stroke-miterlimit="10"/></g><g transform="translate(-110,-238) scale(1,1)"><g><path fill="none" stroke="none"/><text fill="#000000" stroke="none" font-family="Arial" font-size="13px" font-style="normal" font-weight="bold" text-decoration="none" x="627.686767578125" y="603.5">SelectT</text></g></g><g transform="translate(-110,-238) scale(1,1)"><g><path fill="none" stroke="none"/><text fill="#000000" stroke="none" font-family="Arial" font-size="13px" font-style="normal" font-weight="normal" text-decoration="none" x="613" y="626.5">+train = bool</text></g></g><g transform="translate(-110,-238) scale(1,1)"><g><path fill="none" stroke="none"/><text fill="#000000" stroke="none" font-family="Arial" font-size="13px" font-style="normal" font-weight="normal" text-decoration="none" x="613" y="641.5">+tram = bool</text></g></g><g transform="translate(-110,-238) scale(1,1)"><g><path fill="none" stroke="none"/><text fill="#000000" stroke="none" font-family="Arial" font-size="13px" font-style="normal" font-weight="normal" text-decoration="none" x="613" y="656.5">+walk = bool</text></g></g><g transform="translate(-110,-238) scale(1,1)"><g><path fill="none" stroke="none"/><text fill="#000000" stroke="none" font-family="Arial" font-size="13px" font-style="normal" font-weight="normal" text-decoration="none" x="613" y="671.5">+bike = bool</text></g></g><g transform="translate(-110,-238) scale(1,1)"><g><path fill="none" stroke="none"/><text fill="#000000" stroke="none" font-family="Arial" font-size="13px" font-style="normal" font-weight="normal" text-decoration="none" x="613" y="686.5">+car = bool</text></g></g><g transform="translate(-110,-238) scale(1,1)"><g><path fill="none" stroke="none"/><text fill="#000000" stroke="none" font-family="Arial" font-size="13px" font-style="normal" font-weight="normal" text-decoration="none" x="613" y="701.5">+bus = bool</text></g></g><g transform="translate(-110,-238) scale(1,1)"><path fill="none" stroke="#000000" d="M 412 370 L 467 321" stroke-miterlimit="10"/></g><g transform="translate(-110,-238) scale(1,1)"><path fill="#FFFFFF" stroke="none" d="M 462.21213542986334 330.90335058745427 L 467 321 L 456.6117421381969 324.61719485191026 L 450.573483448986 335.634532927267"/></g><g transform="translate(-110,-238) scale(1,1)"><path fill="none" stroke="#000000" d="M 462.21213542986334 330.90335058745427 L 467 321 L 456.6117421381969 324.61719485191026 L 450.573483448986 335.634532927267 L 462.21213542986334 330.90335058745427" stroke-miterlimit="10"/></g><g transform="translate(-110,-238) scale(1,1)"><path fill="none" stroke="#000000" d="M 615 354 L 565 321" stroke-miterlimit="10"/></g><g transform="translate(-110,-238) scale(1,1)"><path fill="#FFFFFF" stroke="none" d="M 575.8006440887327 323.0847271448614 L 565 321 L 571.1630839752702 330.1113333773805 L 583.361406944358 333.11852858327626"/></g><g transform="translate(-110,-238) scale(1,1)"><path fill="none" stroke="#000000" d="M 575.8006440887327 323.0847271448614 L 565 321 L 571.1630839752702 330.1113333773805 L 583.361406944358 333.11852858327626 L 575.8006440887327 323.0847271448614" stroke-miterlimit="10"/></g><g transform="translate(-110,-238) scale(1,1)"><path fill="none" stroke="#000000" d="M 676 583 L 703 515" stroke-miterlimit="10"/></g><g transform="translate(-110,-238) scale(1,1)"><path fill="#FFFFFF" stroke="none" d="M 703.1620326120182 525.9988065458323 L 703 515 L 695.3372436652145 522.8919050522484 L 694.8812751459285 535.4471588917356"/></g><g transform="translate(-110,-238) scale(1,1)"><path fill="none" stroke="#000000" d="M 703.1620326120182 525.9988065458323 L 703 515 L 695.3372436652145 522.8919050522484 L 694.8812751459285 535.4471588917356 L 703.1620326120182 525.9988065458323" stroke-miterlimit="10"/></g><g transform="translate(-110,-238) scale(1,1)"><path fill="none" stroke="#000000" d="M 857 567 L 809 515" stroke-miterlimit="10"/></g><g transform="translate(-110,-238) scale(1,1)"><path fill="#FFFFFF" stroke="none" d="M 818.9863082938132 519.6123363560042 L 809 515 L 812.7999719991309 525.3228006280186 L 823.9221622601275 531.1656757818047"/></g><g transform="translate(-110,-238) scale(1,1)"><path fill="none" stroke="#000000" d="M 818.9863082938132 519.6123363560042 L 809 515 L 812.7999719991309 525.3228006280186 L 823.9221622601275 531.1656757818047 L 818.9863082938132 519.6123363560042" stroke-miterlimit="10"/></g><g transform="translate(-110,-238) scale(1,1)"><path fill="none" stroke="#000000" d="M 277 727 L 309 684" stroke-miterlimit="10"/></g><g transform="translate(-110,-238) scale(1,1)"><path fill="#FFFFFF" stroke="none" d="M 306.30978865431763 694.6659628217785 L 309 684 L 299.5557586754798 689.6397079538062 L 295.8657630749555 701.6491308680286"/></g><g transform="translate(-110,-238) scale(1,1)"><path fill="none" stroke="#000000" d="M 306.30978865431763 694.6659628217785 L 309 684 L 299.5557586754798 689.6397079538062 L 295.8657630749555 701.6491308680286 L 306.30978865431763 694.6659628217785" stroke-miterlimit="10"/></g><g transform="translate(-110,-238) scale(1,1)"><path fill="none" stroke="#000000" d="M 358 535 L 354 486" stroke-miterlimit="10"/></g><g transform="translate(-110,-238) scale(1,1)"><path fill="none" stroke="#000000" d="M 489 743 L 434 684" stroke-miterlimit="10"/></g><g transform="translate(-110,-238) scale(1,1)"><path fill="#FFFFFF" stroke="none" d="M 444.00881320996945 688.5632946571463 L 434 684 L 437.85056309577834 694.3040362890195 L 449.0012808142587 700.0922830552956"/></g><g transform="translate(-110,-238) scale(1,1)"><path fill="none" stroke="#000000" d="M 444.00881320996945 688.5632946571463 L 434 684 L 437.85056309577834 694.3040362890195 L 449.0012808142587 700.0922830552956 L 444.00881320996945 688.5632946571463" stroke-miterlimit="10"/></g></g></svg>